<svg width="240" height="240" viewBox="0 0 240 240" xmlns="http://www.w3.org/2000/svg">
    <defs>
        <linearGradient id="lightHolo2" x1="0%" y1="0%" x2="100%" y2="100%">
            <stop offset="0%" style="stop-color:#FFFF00">
                <animate attributeName="stop-color"
                         values="#FFFF00;#FF00FF;#0000FF;#00FFFF;#FF0000;#FFFF00"
                         dur="7s" repeatCount="indefinite" />
            </stop>
            <stop offset="20%" style="stop-color:#FF00FF">
                <animate attributeName="stop-color"
                         values="#FF00FF;#0000FF;#00FFFF;#FF0000;#FFFF00;#FF00FF"
                         dur="7s" repeatCount="indefinite" />
            </stop>
            <stop offset="40%" style="stop-color:#0000FF">
                <animate attributeName="stop-color"
                         values="#0000FF;#00FFFF;#FF0000;#FFFF00;#FF00FF;#0000FF"
                         dur="7s" repeatCount="indefinite" />
            </stop>
            <stop offset="60%" style="stop-color:#00FFFF">
                <animate attributeName="stop-color"
                         values="#00FFFF;#FF0000;#FFFF00;#FF00FF;#0000FF;#00FFFF"
                         dur="7s" repeatCount="indefinite" />
            </stop>
            <stop offset="80%" style="stop-color:#FF0000">
                <animate attributeName="stop-color"
                         values="#FF0000;#FFFF00;#FF00FF;#0000FF;#00FFFF;#FF0000"
                         dur="7s" repeatCount="indefinite" />
            </stop>
            <stop offset="100%" style="stop-color:#FF0080">
                <animate attributeName="stop-color"
                         values="#FF0080;#FFFF00;#FF00FF;#0000FF;#00FFFF;#FF0080"
                         dur="7s" repeatCount="indefinite" />
            </stop>
        </linearGradient>
        <radialGradient id="lightDepth2" cx="40%" cy="40%">
            <stop offset="0%" style="stop-color:#FFFFFF;stop-opacity:1" />
            <stop offset="25%" style="stop-color:#FFFF00;stop-opacity:0.1" />
            <stop offset="50%" style="stop-color:#333333;stop-opacity:0.05" />
            <stop offset="75%" style="stop-color:#FF00FF;stop-opacity:0.1" />
            <stop offset="100%" style="stop-color:#000000;stop-opacity:0.15" />
        </radialGradient>
        <filter id="lightMorph2">
            <feTurbulence type="fractalNoise" baseFrequency="0.02" numOctaves="3"
                          result="noise">
                <animate attributeName="baseFrequency" values="0.02;0.05;0.02" dur="9s"
                         repeatCount="indefinite" />
            </feTurbulence>
            <feDisplacementMap in="SourceGraphic" in2="noise" scale="5">
                <animate attributeName="scale" values="5;12;5" dur="8s"
                         repeatCount="indefinite" />
            </feDisplacementMap>
        </filter>
        <filter id="lightGlow2">
            <feGaussianBlur stdDeviation="2.5" result="glow" />
            <feColorMatrix in="glow" type="matrix"
                           values="1 1 0 0 0  1 0 1 0 0  0 0 1 0 0  0 0 0 1 0" />
            <feMerge>
                <feMergeNode in="glow" />
                <feMergeNode in="SourceGraphic" />
            </feMerge>
        </filter>
        <pattern id="lightPattern2" patternUnits="userSpaceOnUse" width="12"
                 height="12">
            <circle cx="6" cy="6" r="1" fill="#FFFF00" opacity="0.1" />
            <circle cx="6" cy="6" r="0.5" fill="#FF00FF" opacity="0.15" />
        </pattern>
        <linearGradient id="flowingAccent2" x1="0%" y1="0%" x2="100%" y2="100%">
            <stop offset="0%" style="stop-color:#FF0000;stop-opacity:0.6" />
            <stop offset="50%" style="stop-color:#0000FF;stop-opacity:0.4" />
            <stop offset="100%" style="stop-color:#00FFFF;stop-opacity:0.6" />
            <animateTransform attributeName="gradientTransform" type="rotate"
                              values="0 120 120;360 120 120" dur="10s"
                              repeatCount="indefinite" />
        </linearGradient>
    </defs>
    <!-- Light base -->
    <rect width="240" height="240" rx="54" fill="#FFFFFF" />
    <!-- Decorative pattern -->
    <rect width="240" height="240" rx="54" fill="url(#lightPattern2)" />
    <!-- Soft background -->
    <circle cx="120" cy="120" r="85" fill="url(#lightDepth2)" opacity="0.6" />
    <!-- Flowing background accent -->
    <circle cx="120" cy="120" r="75" fill="url(#flowingAccent2)" opacity="0.2"
            filter="url(#lightMorph2)" />
    <!-- Main content group -->
    <g transform="translate(120,120) scale(1.1)" filter="url(#lightGlow2)">
        <!-- Primary cross pattern - YELLOW (switched) -->
        <path d="M0-65 65 0M0-65V0m0-65L-65 0M0 65 65 0M0 65V0m0 65L-65 0M70 0H0m0 0h-70"
              stroke="#FFFF00" stroke-width="6" fill="none" stroke-linecap="round"
              opacity="0.9" />
        <!-- Secondary cross pattern - MAGENTA (switched) -->
        <path d="M0-65 65 0M0-65V0m0-65L-65 0M0 65 65 0M0 65V0m0 65L-65 0M70 0H0m0 0h-70"
              stroke="#FF00FF" stroke-width="3" fill="none" stroke-linecap="round"
              opacity="0.7" />
        <!-- Tertiary cross - dark accent -->
        <path d="M0-65 65 0M0-65V0m0-65L-65 0M0 65 65 0M0 65V0m0 65L-65 0M70 0H0m0 0h-70"
              stroke="#000000" stroke-width="1" fill="none" stroke-linecap="round"
              opacity="0.3" />
        <!-- Primary circles - RED (switched from yellow) -->
        <circle cy="-65" r="9" fill="#FF0000" filter="url(#lightMorph2)">
            <animateTransform attributeName="transform" type="scale" values="1;1.2;1"
                              dur="4s" repeatCount="indefinite" />
        </circle>
        <circle cx="65" r="9" fill="#FF0000" filter="url(#lightMorph2)">
            <animateTransform attributeName="transform" type="scale"
                              values="1.1;0.9;1.1" dur="5s" repeatCount="indefinite" />
        </circle>
        <circle cy="65" r="9" fill="#FF0000" filter="url(#lightMorph2)">
            <animateTransform attributeName="transform" type="scale" values="1;1.3;1"
                              dur="3s" repeatCount="indefinite" />
        </circle>
        <circle cx="-65" r="9" fill="#FF0000" filter="url(#lightMorph2)">
            <animateTransform attributeName="transform" type="scale" values="1.2;1;1.2"
                              dur="6s" repeatCount="indefinite" />
        </circle>
        <circle r="11" fill="#FF0000" filter="url(#lightMorph2)">
            <animateTransform attributeName="transform" type="scale" values="1;1.4;1"
                              dur="7s" repeatCount="indefinite" />
        </circle>
        <!-- Accent circles - BLUE (switched) -->
        <circle cy="-65" r="5" fill="#0000FF" opacity="0.8" />
        <circle cx="65" r="5" fill="#0000FF" opacity="0.8" />
        <circle cy="65" r="5" fill="#0000FF" opacity="0.8" />
        <circle cx="-65" r="5" fill="#0000FF" opacity="0.8" />
        <circle r="6" fill="#0000FF" opacity="0.8" />
        <!-- Light highlights -->
        <circle cy="-65" r="2" fill="#FFFFFF" opacity="0.9" />
        <circle cx="65" r="2" fill="#FFFFFF" opacity="0.9" />
        <circle cy="65" r="2" fill="#FFFFFF" opacity="0.9" />
        <circle cx="-65" r="2" fill="#FFFFFF" opacity="0.9" />
        <circle r="3" fill="#FFFFFF" opacity="0.9" />
        <!-- Diamond outline - CYAN (switched) -->
        <path d="m-13-52-26 26c-13 13-13 39 0 52l26 26h26l26-26c13-13 13-39 0-52L13-52Z"
              fill="none" stroke="#00FFFF" stroke-width="7" stroke-linejoin="round"
              filter="url(#lightMorph2)" />
        <!-- Diamond accent - HOLOGRAPHIC (switched) -->
        <path d="m-13-52-26 26c-13 13-13 39 0 52l26 26h26l26-26c13-13 13-39 0-52L13-52Z"
              fill="none" stroke="#FF0080" stroke-width="3" stroke-linejoin="round"
              opacity="0.7" />
        <!-- Dark contrast outline -->
        <path d="m-13-52-26 26c-13 13-13 39 0 52l26 26h26l26-26c13-13 13-39 0-52L13-52Z"
              fill="none" stroke="#000000" stroke-width="1" stroke-linejoin="round"
              opacity="0.2" />
    </g>
    <!-- Subtle holographic overlay -->
    <rect width="240" height="240" rx="54" fill="url(#lightHolo2)" opacity="0.08" />
    <!-- Final shimmer -->
    <circle cx="120" cy="120" r="78" fill="none" stroke="url(#lightHolo2)"
            stroke-width="1" opacity="0.4">
        <animate attributeName="r" values="78;82;78" dur="6s"
                 repeatCount="indefinite" />
    </circle>
</svg>